<mxfile host="app.diagrams.net" modified="2024-06-25T23:22:56.660Z" agent="Mozilla/5.0 (Windows NT 10.0; Win64; x64) AppleWebKit/537.36 (KHTML, like Gecko) Chrome/126.0.0.0 Safari/537.36 Edg/126.0.0.0" etag="ntFf8SiY-L-OWyxDzauW" version="24.6.3" type="github">
  <diagram name="Page-1" id="9OWzc0lV2gLhd7muVbYR">
    <mxGraphModel dx="2074" dy="3335" grid="1" gridSize="10" guides="1" tooltips="1" connect="1" arrows="1" fold="1" page="1" pageScale="1" pageWidth="850" pageHeight="1100" math="0" shadow="0">
      <root>
        <mxCell id="0" />
        <mxCell id="1" parent="0" />
        <mxCell id="2" value="Azure Service Bus Topic" style="whiteSpace=wrap;strokeWidth=2;" parent="1" vertex="1">
          <mxGeometry x="-790" y="-914" width="184" height="34" as="geometry" />
        </mxCell>
        <mxCell id="3" value="ML Endpoint Subscripition&#xa;No Sessions" style="whiteSpace=wrap;strokeWidth=2;" parent="1" vertex="1">
          <mxGeometry x="-590" y="-1116" width="116" height="76" as="geometry" />
        </mxCell>
        <mxCell id="4" value="Rest API &#xa;Subscription&#xa;with Sessions" style="whiteSpace=wrap;strokeWidth=2;" parent="1" vertex="1">
          <mxGeometry x="-590" y="-748" width="116" height="100" as="geometry" />
        </mxCell>
        <mxCell id="6" value="Online Endpoint 1&#xa;subscription" style="whiteSpace=wrap;strokeWidth=2;" parent="1" vertex="1">
          <mxGeometry x="-420" y="-956" width="120" height="34" as="geometry" />
        </mxCell>
        <mxCell id="7" value="Client 2&#xa;Publisher" style="whiteSpace=wrap;strokeWidth=2;" parent="1" vertex="1">
          <mxGeometry x="-400" y="-809" width="77" height="34" as="geometry" />
        </mxCell>
        <mxCell id="8" value="Online Endpoint 2 &#xa;Subscription" style="whiteSpace=wrap;strokeWidth=2;" parent="1" vertex="1">
          <mxGeometry x="-400" y="-648" width="140" height="34" as="geometry" />
        </mxCell>
        <mxCell id="7K1gx86GGzJUnyS49Ook-14" value="" style="image;aspect=fixed;html=1;points=[];align=center;fontSize=12;image=img/lib/azure2/integration/Service_Bus.svg;" vertex="1" parent="1">
          <mxGeometry x="-730" y="-959" width="41.93" height="37" as="geometry" />
        </mxCell>
        <mxCell id="7K1gx86GGzJUnyS49Ook-15" value="" style="verticalLabelPosition=bottom;html=1;verticalAlign=top;align=center;strokeColor=none;fillColor=#00BEF2;shape=mxgraph.azure.service_bus_topics_and_subscriptions;pointerEvents=1;" vertex="1" parent="1">
          <mxGeometry x="-606" y="-1048" width="45" height="50" as="geometry" />
        </mxCell>
        <mxCell id="7K1gx86GGzJUnyS49Ook-16" value="" style="verticalLabelPosition=bottom;html=1;verticalAlign=top;align=center;strokeColor=none;fillColor=#00BEF2;shape=mxgraph.azure.service_bus_topics_and_subscriptions;pointerEvents=1;" vertex="1" parent="1">
          <mxGeometry x="-635" y="-730" width="45" height="50" as="geometry" />
        </mxCell>
        <mxCell id="7K1gx86GGzJUnyS49Ook-17" value="" style="group" vertex="1" connectable="0" parent="1">
          <mxGeometry x="-300" y="-970" width="97.86999999999995" height="85" as="geometry" />
        </mxCell>
        <mxCell id="7K1gx86GGzJUnyS49Ook-18" value="" style="shape=image;verticalLabelPosition=bottom;labelBackgroundColor=default;verticalAlign=top;aspect=fixed;imageAspect=0;image=data:image/png,iVBORw0KGgoAAAANSUhEUgAAAGUAAABmCAYAAADS6F9hAAAAAXNSR0IArs4c6QAAAARnQU1BAACxjwv8YQUAAAAJcEhZcwAAFxEAABcRAcom8z8AABgDSURBVHhe7Z1rlJ1Vecc3BS/UCppgoRgFjOHiNdJqUxBxUdCkCgUFGtDcQzIkIZnM5cwgbfFWbaAqy1UuWi6FqgQICSGUhJsJCSQhk8tkZljg8oNtrcu2Xwz9Ur5N9+/d55/zzJ79vuecmXMmQc9e67/OOe+7r89vP8/e73veM+N+a9JXhqa7nqH5rvflb7veoa1pcW6w3ZUOziiXaqWGpxsHLveGvs8b/Ddew3WpZ/D/vDa73oE21/PK6eUaW2lM6eYD7/DG/Ko3bP0girU1g9xKdaSbf/HWJsGItavlObUk1oCeoVcSBmyWfuMnwKfLrbfSqBQW7pThmi0PpuUxIxPhqnfowchQRfpFBrBnoDeb5fFMZ3fWOzTT7M5SdcTa5VbvPN6XPiZU8rucWMwxSNpQsQA3s1yy9tS7452uNLDAly0GRJ4AJU+/AykDMnggaSAp2856j+gaOqVcqtaUMuoxfs2a5dv8dbIt+uLc7yWUqusoTjcOnO1uHPqeHxSz0O6WeL8120WRJ041AfELPqGovhQbzxr32EzdfedmsFNtdrz05z7PcYfzVmTrids4ShJxvJpRR4oQFUJPLUB6hzZk+WpP1kjWgBgUI6M3lfVmVzrw/USbPoT135KdD1J+lY8B2TaPYKp/UY7EVXk1IIPt5dZqSdYwFoRgBAjOvaWst3od7+atOzvZds/gv2Xng8iLKBdDOkrgsG2szzvqF/e0ak8pGDGIAMG53/d6m9cfeL09U2ngZ8k+XH33h8p5yEsZygqSBZQHZ4JSBoStaGIQjVLtQDR4AZFnxDAEAgOf4HWiFyHxnV6TXMfuO5P9aHt6cXY+5CM/5SwkAUrBmSAwRz8QeQcw5BUYEBCCMNnrJK93ef2h18lu8Yb5yb6s3vmDch7yUoayQLKABEeeM4Fgjh4gMQxkQ5U8w8LAkBg1QHCObfUfeZ3q9W533jIuMkf3p3PvznIeRH7KCRKAgCw4tCmvmQAwEwGk+gVbrDzvYOZaGBhQIAIE56Z4vaes92YqHfyfUX3q7v9l+Tz5KIMoDyDqFBzaok15TZPBTBwQzfpaxGAFJPYOZq48A8PJIwQCI582Sl379o/qV8/Aa1G+ADDUY+HQFl4jMHke06DEdULc2UYqAJGRZWirY13n7ot8KFnmug/e5a8ftvlri7X+4u4mt3zbJe7CVcxSDEEI4T0zlxAjzyiGEfRe17lnS7J/6fzIwqEtvIbJYMFo8ReUBoFJdbRR6u5f6Fug03Rea0JFSzdNc937d3sQXMwFdR8I6toX1L77Z27ev3D1zUy13lEEw874EJY6+zYn+5iuhzvJeh+DoR9aYwipjKvB3tKsL5i69t3ka8f42rYi4nHYNS3ftsR7x6HDxo/V2cetEL9D2u3BvDjsrtvEFbj1jjwYAoEhKwt494G9yX5Wwh/543oFx4JhYuCxhFK7vjTQW7gJmOrseNS1/xu+ZkHQWsDsQie4ti3tmbERhs+0x0gwdg67VS8Mu5Xbh92KrcNu0cYHfPl4ViPBwHABQrzVLQ38+6h+opBHuzbKUodtw4IBHnkVxprpLdmDCqM7PBYFIMDQOjDyQu5TpXPcqh2HMmMjvCCTB3BY/nMGY8ewu+F5D+Snw275c8Nu2TPDbtbNfOeeB0M7JkBgOG1pT0z2tWfwv/w59Y21irLUkfJG3nOMdsgnb9Gi32AopEaA6dz7TV+ThaFdkgZ7imvbvCGb9eiGbWV5w+MNEp85Tp7lHsiyZwOQ658edkueeNmdevaZvi4ZCQMq3sfXFhjtbe7KH56R7G93/9PlPOovZbVupcAUeUsTFnzSeMAEIAwwHpxCwhT3mZtmHjYur5kwuFfbUz9319y9zF3x3SvdX925yIe4fSNgXP9UWf79Nfd2lOukbgxEWxYGEwNjMYvf4j3ukmSfw51ihdl4hycwgIi9RWsL7dmdWBO8hTQWMJ19f+dL2gFhKAymmUZcfp+76o6/cUufHD6sts1BizbsdpPP5LuYM8p5gxauf9zDAlgFCKAWr/8nf17eoTDFrGVSAEMLcNj1lQbuT/a7Y++XynnIi2Epq3FgdNoAfuwtCmG02+QQplQPmJFA5B0aCEae6jXN60x37b33+10UO6mKljwx7P50wazsfMj3/rKmurMvneGWbn49QCkDycLZM3v9ecAzAWhX3gEMQomAHOeW/Pik3C+6lj5LPzEkoceCATAG1+Sy3qI1TCGMtjUJmhTClGoBUwGicMXMwjvo/Pu8MPJZXud4fcDN/cke7xV4htGj/5udC3nwFvJXAF33+MuZlxDGAMJas3L7IX8OgxQDQaX+jmTf+TIuGA4jxmCoj9BkxyRv4RUoHGdSTMC6otQzlL7dLXUfuNXnwnWtq9N5Qg8zXTA+6MX3Fh/2UF51Cx8drmj9sJv30K+ycyEPeQUHMB7Kpv0jgKzyO7JVL7zuz9EuBsGAClmColl7nOsd6E/2n6+vK8azYKhD3gJ4PMKuLUBJrSuU07rSBCilwdnJgUilg1wvaFHPA8Lsx9Af8fqo13Q3++4tbsG64RECzglTPu7PCwzlgDLNTZp2jg9dr40AErbMA/48RsNLtI5YMEEdL30+2X9U2gd8kgUjb6Ee6iUCsHbEUOy6wuTQuiIo8pYGJZ4myX0KxCsAsTNJa0gxEOc+5i5bc6tb8IiHYeXBXHXHj/x5oMhT8JKpbt7aO7LrEwuEC8v2nev8eSaEBYOYsSGUXfuj07LrkNQYuN83cjYLCgbFsAphigJ206J1BVDxYt8kKDyxnh6IB+J3MaFxOkGHNYvoLAt6DCTACDrXXbh6hZv/8HAmC4Uwds19j7npV17i853lps441wO5Jwmkcy/XL70+H1AQ/UD6HECV+rcnx4B4ymU0FCQoeBpQqC+1rggKoQ0odrFvApTwGNHogQQgcm06IS+hs+yyWJiZ5TEQDBD09nfPcHMeeLUCpRy+WPAXPxZ2Y9lWmYXd77S4eOSq3gLp2n/IzfoWnkT7GITFFmG88H7Vi2uSY0A9Axt9Hms4K47ZdQUo1FkEhX40GUr2+47EYBY/SadoVKFLnaWD7LQwFF5CGKqELAsFzVg0Lx/IvxYD6d7vF/xnuHAUBIzCxKAfQXN/ckWy/5kGD7k5D2PYOMzY11qg8Jq3LW4GlJxdV8/AGn9Wna0FSiVsjdTH3NV3PVI3kOzO8d4+Xx4YhE3aJtZjHDTFfeF7n82+uEr1H63audTnk/Ewvgx4lEPhWazUgFDlZqNd5BW+gKLwlecpfJ7u3vORT7ovP/BCVSDcKbZALvsHygMEGNoRodPc5bfOKgTStfdRnw8js1awLgqMoCAMKihFawqvExm+Xjk99woYVe5xEc/plN15sZVlBxUv8hLHABZ2Wpd/50a3ZNNrrm1LuDjMA7J613d9fmasgNCmDHS6u+zbnysEwncp778Qo2JAJhRegOEVxmRIXot2X7SH7JoyAQs9qWgHhsKVvGYRHY5DWOwto4HoWuT85Ze4eY/c7j3lRbfi+dcPA1m9e49rf+F2N2ftxT6fFnRmLMaoA0j/L92ftdE+ZekvhmZSxWEM8V5Q7A5TY4yhcI6+NXlLrJS34EurdvDIqfUWOmu9RWuL1UggAaRCAQOc5C69DS9j5iFmNfCZ4bQj41DmdPep9gsyo6f6h4D1l2v+opyfPhJuU94iMLwHFMBoX+OjfzEU+kKfBXkCoITfIxaDuWH79T6nXfDjtQUIGBlVA4IBAIAxGCTiPYOmDcGnndqA4EWhTxiS8CNvSa0tGBTFmxldHMs7eU3VZcMhQJoEJe+axWr5T5f73BgV49Lp+CJSqgUIIDCIZKFghGCcCzs+WaOHAASx5gHTtqfZDRQB4b0NXan1xHod/bJeB1x5SYOhZL9lL7jVEmvZsyt8KestGB4AgAEGrykgzH6FEwxB2MAoiIFyDFgYh/qnuE93nV8VyBXf4acYGBAYgiJj0iZQAC5jAgPJSzinkEk/GZegCK6tx65PDQ5d/OinWsjKU9tTK30NDNreAwME4n0RENyfgclAvPJZO6DgKRd/ZUYhENQz8Lr73Df4bWQelHhdYQLQnm3TToTgnRUoeM0ErSfhx575W+FatORJFn86ri+2gMEaUw2IDBOHERlospv5tY9XBSLx4F0xFIUdTQaJz8x8PCDlJXEddj3RZqFBoSsLV4nBjUWLNnb6GgGAtwCDVz4zqNSAMD4QgMHAtOhynJl8QnbRWDr4H8n28sTFZACS5ym0zyynDQtEa0nKS2oNXQ2AMq5fbCW0cH23rxVvAQivGMXuWOT2dkCaaUjecryb/c8fzH1mq0grn7/Hl7dQrEHlpfQBGBYI5/K8JG8HR38bHbqqfMs4Fs25v83XDBCMollqDaJF1g4ICcyb3VW3nDImIIgFvwIFo9q1gFmOUQEBGAuE89px5XkJ+SijMTTYS0jZn3Aa53oSiwX32vv4PYpmabw4Wi+xUAKYBfe8y/UcPJisu1b98dxP+LrUvkIXs1xQmByI9wKSCluaVNZLGEPKSxoEhZT9Xa3EwMYjwHzp/nm+9mpQNKDwunrLpNzv1uvRvB8v8fUp7NA+s5z1TFDoi/UQjJ4XtqyXxV4ClAYDUWoWmC8/MNfXzmDtoIBiBxW8JAPSoB/Bhk2HDCovAQB9AAavQIqBpMJWaoPSRC+xqVlg5q3lwbe8nVfwFv6MRyN/lXzdE6t9vQKC4WlbUBCQBITwlAJiw1aRl48BSPaHZbIfCKHiv3vSXDCEEAwycrFfvn5yQ4GgBY9c4+umPQwqIBLHOAc0AQEEaxCvClsASYWtce64UkbmMaKi1Cww8x+61tc+cpCzbzu5IWtIrPClGDCqAZF3AERQgMR58lGGSdSgsJVrXD8rq6VmgQkzOISDmaUp495lpdQz8N++foUpSUAIZxgcTxAMe00DJGDZcKvd1jjDVpFR+SM1taRmgjlv7lRX6h9I5hmvuvpu972Pd1gCwsItIIDgegpx5wEo8hLr0amNSZ1QqhkzPLZZW2oGmGZr0brzfc91DYJhLRCMjvHj20H27oO8pEFhKyzq6c4i7gTzfUnt6Rh/Zc0fN0vXd7SpdPBx32fCDTMcL8G4rA0CIu/QTVPdxeYY3kPoIr/1knGGraK/QFc/EFLoxFjAXLfpTtd14FfJc80QdybmPMg3n0DBSwhbWtQtEO5e87UCefX1gqAAj9ClLXADFve8P1ZQDUjqj6hVOkBnjnXdB76erDulzr5XfZmPuj+ZO6tmMJ177sgMmzpXi9p3XO3bJNwQdpjpGFdACE2EKQAAI/4SjnPksVDyQledKfXbkiIg2V+8liEGf+3f6w9oCoig4L5vyh4ziutP6eISBuIplunujE9c4FZs3ZjMh7r7f+5m38136ie5ti1fHBOYzr6/9uW5jiDkWCCsERZI0VfV5CN8NRgKT86P+AbRQ8oDklzE+SrYX11XYAQvCVCIrce7jpe+Nbqc0Yptj/l8PMEy8vmvK25b5pY997Dr2HPQg/hPt3rXM27Jpm+6Uz+MsXSxVj+YyoOChButI9SVB0QPdCA+4zmENMKb1pSi8DXGBJyiPwVYtKvq2HOezxEDoWNsC8NsbN/598mybHk/cOlFPg9QBERPSCJA6QkXjISxFDrqBzM2IPGjT5wDCjsyymmhbzCUolRtm9u+A5e2MBBeQgcrIWLljltGlZ3/0Nf8OQZqPWX046uNAFP5vYwFwna2CEgIqUH0kWOMl3xAYf2hDjYJ2n01GUrVa5iBtT6XYAAC70AAoYOCghFOctc/VfLrzE4f03e5Rev/1h/Tc18ygDwkDwx56wdTAVLpS3UPsf2xfdC6wg4MKNRjoWCHJkGpDmSLu2wNHbEQBEJi8SOP3XKyY+H2hLabKUNYKEVgqGMkmMUbP+/BVH6Z1b3vH/1xvINdVgoIdRQBSbUvKIxjgqDUAmTmzQxSMDA+A0+JzsogChkskOzziwwydjAYCThX3kXI0y0UDMdOqVYgeW1bT5kgKPUBkSfw+cQsfPBTgu7969zCDfyZJ85J9jaGNYwNHRixyDAxGO2EMBCQqZOtLR5JO0wCxHtdGNYLRG1bKJoMqTWlwVDqByIPmJT8qdrSJ3kklM7KYwQmnrH1gOG4XXQtGOrCUIRI6sdgiPe6dWKBpNY0217crt1saPdF/YyJMWKXBi70VYEM7i6vIRYInZmc3Fmh7v1P+POCYsEolORdsMVgZCy95zjnZSRd0AkMYYV6JWBwzN46AQhQqSNv9ydxXFtiyjXx4lEp/CuL0UY9rIH+7M9k2GsPLZort9+aLuPVtf/Zcl6AaN1JgdEMrgZGQCwUeQvlBAbjUx8hDfGemS0gQKQNeQkGV/0pIGpP6wn9pF76jl0YD3bBPuxGBWQcUAr/PuTggewr2DAD5CXBqEVA0MrtfPeNRwmKwFTCXjEYazTBQJq1nCefhUJ5jA8EK45znnzkT9UfQxEQtUcZoAJdoSteTxoEZcStFisPhKdGQkM0SMMY9R1u6aa56TJlBS8hvAFQ3iLxWWAArkW4CIyMx2sKCMayUGIJijyFcgpfMRjJAom9pJY7xONIyT9FyMMJ2X0tGhgNpdTfN7pMWV37nnPTLiLeApROAwYIwJD4zHGByfMYGQ8Ikg1ZGFkgYu+wisHEdVswkiaB2qNs7CWMw4YuoIzTS0jchLR3jDPPGXGjMQEl5zFRgIQfc2pLSsepC+NbQJLAkE9gKA8YDGlntjyDz4KBwcmr9SMW5yQMiihD2TyvkeQhnCcv5Zg0Wkvod94CP04oStyUrPwHH1VsoVTWlI6+e5NApl5ApzEunZaAEwOy3sOrBaPtMka1BkQKUYKhnRaeSUjhVeJ4LPpHGUGycIAuz0GaBAJCOYUtxkHf7VrSIC/JTxYKjTETKruvD116crZuCEhH34NlD6HDEmuFFccEBwiCIgHKgsGwMiBGQRiSzxiX88xaQkncFsdSol7KUJY6LHhCmjyHVz4zCSwQ6qaP9F1hq0lekk4WSuwtwYif/fpZ7oLFGApj4xWCYQ0g8Zlz5GWmCYrdAACGc9RFHRhCMxzxXjCoi3zyQCuOpaR+UlbgqVfggSNvJHwythgIfVTYkpdMCBCSGom9BZetgKkYQVAwJkZTOLGG5Bz5KENZQaG+GAwGVH0YULIwrMdZuCmRD9n6qYt+0T+Mb9ch3tN3TYA8INZLmp5iKHQgBsMgtR5gKAERDDvDgYRRMbQGiLEsFAtG9WI8KwGlbfITRuhPNZEPxRNKnmMnEkr1l7LUlQIyIVBIMRigxGEM42nWMQgGBAjNPF75zHENkvzxumKhIDuzJeWnbQxMP5gk9KkWkZcyGNbC0aSib4wDxf0kf56HTBgQUgyFztApQaGzmm1aAywQQYk9RTOeAcvYMjgSICuBwKAWBhOFfslQko7FshMrhkN/6Jf6Rp9oWxPgiAMh5UFhMHSWgchLcH+Mb4EgeQnnAQcUIFKOGWqNIEAxhGog6F8tssAsHIU1TQBJ7avdIw5EyUJhIHSQzjK7MCYGtmErBmK9RGFBYKzkPYChboyUB0PGlbFloFqkMjEc2pD38JrXrm3viCQ7EEGhsxiMGc1Mj71Esh4SA+E9wnOQzgkMdQsKhqkHRiql8mlMSHAESCBsu3GbRyzFA6CzQMG1Fbq0lgAFEPIOG7JiIBwDFOcljnHeQqEt2swzzFiMY8uqPo0vpUa02dBkO49hMBCzFyisAYQdQQGCYNhwpdCEeM8xASGvzQ8UvM9C0WyNjTPepHok1R/L5jkqku1wDMUu8nbWC4bCkRZzbTuVXyBjKORlTWHdUujSjG2GcVRnNR01SR0SFAxk1xQMiKEVliwMzmlHhfjMcc5bKLwqfHGeMkAHvkJXs4C8IZOFwmwFCrOXWSxvkRdYr+A40JjxkvLGIYxXgHCc83HoaqaXvGGThaIQhsEEBiPKGwSC4xiWPIj3AmPDmDxLQDhPXusltNsCEiUZxHqLwGA8Gd1C4DjnJT5bMLF32atn8k7EWvKGTzEYeQzGs8bnM+KcFccsmJR3yUNaQGpMFooFg/FicTwWxwXQepbEMc4BkLwtIDUmGSiGk1J8XmDkNda7kLyLfCpv22ulgmQNhWT8WKnzFk4seVQLyDiSNVotsmDypDy2XCuNI+UZ0BpYkvFj2TytNEHJGj1PrXQEUwtEK7VSK7XSb0ty7v8BdJM3uAbn/7sAAAAASUVORK5CYII=;" vertex="1" parent="7K1gx86GGzJUnyS49Ook-17">
          <mxGeometry x="1.4599999999999795" width="59.41" height="60" as="geometry" />
        </mxCell>
        <mxCell id="7K1gx86GGzJUnyS49Ook-19" value="Online Endpoint" style="text;html=1;strokeColor=none;fillColor=none;align=center;verticalAlign=middle;whiteSpace=wrap;rounded=0;" vertex="1" parent="7K1gx86GGzJUnyS49Ook-17">
          <mxGeometry x="-7" y="44" width="60" height="30" as="geometry" />
        </mxCell>
        <mxCell id="7K1gx86GGzJUnyS49Ook-23" value="" style="group" vertex="1" connectable="0" parent="1">
          <mxGeometry x="-321" y="-819" width="120" height="78" as="geometry" />
        </mxCell>
        <mxCell id="7K1gx86GGzJUnyS49Ook-24" value="" style="shape=image;verticalLabelPosition=bottom;labelBackgroundColor=default;verticalAlign=top;aspect=fixed;imageAspect=0;image=data:image/svg+xml,PHN2ZyB4bWxucz0iaHR0cDovL3d3dy53My5vcmcvMjAwMC9zdmciIHZpZXdCb3g9IjAgMCAxOCAxOCIgaGVpZ2h0PSIxOCIgd2lkdGg9IjE4Ij48ZGVmcz48bGluZWFyR3JhZGllbnQgZ3JhZGllbnRVbml0cz0idXNlclNwYWNlT25Vc2UiIHkyPSI1Ljk3MyIgeDI9IjkiIHkxPSIxNS40MjciIHgxPSI5IiBpZD0iYTAwNWQ5ZTktN2UyOS00ZWY0LWI5OTUtYTc5ZGNlMmU5YmY4Ij48c3RvcCBzdG9wLWNvbG9yPSIjMzJiZWRkIiBvZmZzZXQ9IjAiLz48c3RvcCBzdG9wLWNvbG9yPSIjMzJjYWVhIiBvZmZzZXQ9IjAuMTc1Ii8+PHN0b3Agc3RvcC1jb2xvcj0iIzMyZDJmMiIgb2Zmc2V0PSIwLjQxIi8+PHN0b3Agc3RvcC1jb2xvcj0iIzMyZDRmNSIgb2Zmc2V0PSIwLjc3NSIvPjwvbGluZWFyR3JhZGllbnQ+PC9kZWZzPjx0aXRsZT5Nc1BvcnRhbEZ4LmJhc2UuaW1hZ2VzLTYwPC90aXRsZT48ZyBpZD0iZjEyYjQ4Y2UtMTE0Yy00NDI1LTk2YmUtMDExMmIzZjdkOWMzIj48Zz48cGF0aCBmaWxsPSJ1cmwoI2EwMDVkOWU5LTdlMjktNGVmNC1iOTk1LWE3OWRjZTJlOWJmOCkiIGQ9Ik0xLDUuOTczSDE3YTAsMCwwLDAsMSwwLDB2OC45MmEuNTM1LjUzNSwwLDAsMS0uNTM1LjUzNUgxLjUzNUEuNTM1LjUzNSwwLDAsMSwxLDE0Ljg5M1Y1Ljk3M0EwLDAsMCwwLDEsMSw1Ljk3M1oiLz48cGF0aCBmaWxsPSIjMTk4YWIzIiBkPSJNMS41MzgsMi41NjNIMTYuNDYyQS41MzUuNTM1LDAsMCwxLDE3LDMuMVY1Ljk3M2EwLDAsMCwwLDEsMCwwSDFhMCwwLDAsMCwxLDAsMFYzLjFBLjUzNS41MzUsMCwwLDEsMS41MzgsMi41NjNaIi8+PHBhdGggZmlsbD0iIzljZWJmZiIgZD0iTTEsNS45NzNINS4xOTRhMCwwLDAsMCwxLDAsMHY5LjQ1NWEwLDAsMCwwLDEsMCwwSDEuNTM2QS41MzIuNTMyLDAsMCwxLDEsMTQuODk1VjUuOTczQTAsMCwwLDAsMSwxLDUuOTczWiIvPjxwYXRoIGZpbGw9IiMzMmJlZGQiIGQ9Ik01LjE5NCwxMy4zNTZIMTdhMCwwLDAsMCwxLDAsMFYxNC45YS41MzIuNTMyLDAsMCwxLS41MzIuNTMySDUuMTk0YTAsMCwwLDAsMSwwLDBWMTMuMzU2YTAsMCwwLDAsMSwwLDBaIi8+PC9nPjwvZz48L3N2Zz4=;" vertex="1" parent="7K1gx86GGzJUnyS49Ook-23">
          <mxGeometry width="58" height="58" as="geometry" />
        </mxCell>
        <mxCell id="7K1gx86GGzJUnyS49Ook-25" value="&lt;span style=&quot;color: rgb(0, 0, 0); font-family: Helvetica; font-size: 12px; font-style: normal; font-variant-ligatures: normal; font-variant-caps: normal; font-weight: 400; letter-spacing: normal; orphans: 2; text-align: center; text-indent: 0px; text-transform: none; widows: 2; word-spacing: 0px; -webkit-text-stroke-width: 0px; white-space: normal; background-color: rgb(251, 251, 251); text-decoration-thickness: initial; text-decoration-style: initial; text-decoration-color: initial; display: inline !important; float: none;&quot;&gt;Rest Client&lt;/span&gt;" style="text;whiteSpace=wrap;html=1;" vertex="1" parent="7K1gx86GGzJUnyS49Ook-23">
          <mxGeometry y="38" width="120" height="40" as="geometry" />
        </mxCell>
        <mxCell id="7K1gx86GGzJUnyS49Ook-26" value="" style="group" vertex="1" connectable="0" parent="1">
          <mxGeometry x="-260" y="-650" width="97.86999999999995" height="85" as="geometry" />
        </mxCell>
        <mxCell id="7K1gx86GGzJUnyS49Ook-27" value="" style="shape=image;verticalLabelPosition=bottom;labelBackgroundColor=default;verticalAlign=top;aspect=fixed;imageAspect=0;image=data:image/png,iVBORw0KGgoAAAANSUhEUgAAAGUAAABmCAYAAADS6F9hAAAAAXNSR0IArs4c6QAAAARnQU1BAACxjwv8YQUAAAAJcEhZcwAAFxEAABcRAcom8z8AABgDSURBVHhe7Z1rlJ1Vecc3BS/UCppgoRgFjOHiNdJqUxBxUdCkCgUFGtDcQzIkIZnM5cwgbfFWbaAqy1UuWi6FqgQICSGUhJsJCSQhk8tkZljg8oNtrcu2Xwz9Ur5N9+/d55/zzJ79vuecmXMmQc9e67/OOe+7r89vP8/e73veM+N+a9JXhqa7nqH5rvflb7veoa1pcW6w3ZUOziiXaqWGpxsHLveGvs8b/Ddew3WpZ/D/vDa73oE21/PK6eUaW2lM6eYD7/DG/Ko3bP0girU1g9xKdaSbf/HWJsGItavlObUk1oCeoVcSBmyWfuMnwKfLrbfSqBQW7pThmi0PpuUxIxPhqnfowchQRfpFBrBnoDeb5fFMZ3fWOzTT7M5SdcTa5VbvPN6XPiZU8rucWMwxSNpQsQA3s1yy9tS7452uNLDAly0GRJ4AJU+/AykDMnggaSAp2856j+gaOqVcqtaUMuoxfs2a5dv8dbIt+uLc7yWUqusoTjcOnO1uHPqeHxSz0O6WeL8120WRJ041AfELPqGovhQbzxr32EzdfedmsFNtdrz05z7PcYfzVmTrids4ShJxvJpRR4oQFUJPLUB6hzZk+WpP1kjWgBgUI6M3lfVmVzrw/USbPoT135KdD1J+lY8B2TaPYKp/UY7EVXk1IIPt5dZqSdYwFoRgBAjOvaWst3od7+atOzvZds/gv2Xng8iLKBdDOkrgsG2szzvqF/e0ak8pGDGIAMG53/d6m9cfeL09U2ngZ8k+XH33h8p5yEsZygqSBZQHZ4JSBoStaGIQjVLtQDR4AZFnxDAEAgOf4HWiFyHxnV6TXMfuO5P9aHt6cXY+5CM/5SwkAUrBmSAwRz8QeQcw5BUYEBCCMNnrJK93ef2h18lu8Yb5yb6s3vmDch7yUoayQLKABEeeM4Fgjh4gMQxkQ5U8w8LAkBg1QHCObfUfeZ3q9W533jIuMkf3p3PvznIeRH7KCRKAgCw4tCmvmQAwEwGk+gVbrDzvYOZaGBhQIAIE56Z4vaes92YqHfyfUX3q7v9l+Tz5KIMoDyDqFBzaok15TZPBTBwQzfpaxGAFJPYOZq48A8PJIwQCI582Sl379o/qV8/Aa1G+ADDUY+HQFl4jMHke06DEdULc2UYqAJGRZWirY13n7ot8KFnmug/e5a8ftvlri7X+4u4mt3zbJe7CVcxSDEEI4T0zlxAjzyiGEfRe17lnS7J/6fzIwqEtvIbJYMFo8ReUBoFJdbRR6u5f6Fug03Rea0JFSzdNc937d3sQXMwFdR8I6toX1L77Z27ev3D1zUy13lEEw874EJY6+zYn+5iuhzvJeh+DoR9aYwipjKvB3tKsL5i69t3ka8f42rYi4nHYNS3ftsR7x6HDxo/V2cetEL9D2u3BvDjsrtvEFbj1jjwYAoEhKwt494G9yX5Wwh/543oFx4JhYuCxhFK7vjTQW7gJmOrseNS1/xu+ZkHQWsDsQie4ti3tmbERhs+0x0gwdg67VS8Mu5Xbh92KrcNu0cYHfPl4ViPBwHABQrzVLQ38+6h+opBHuzbKUodtw4IBHnkVxprpLdmDCqM7PBYFIMDQOjDyQu5TpXPcqh2HMmMjvCCTB3BY/nMGY8ewu+F5D+Snw275c8Nu2TPDbtbNfOeeB0M7JkBgOG1pT0z2tWfwv/w59Y21irLUkfJG3nOMdsgnb9Gi32AopEaA6dz7TV+ThaFdkgZ7imvbvCGb9eiGbWV5w+MNEp85Tp7lHsiyZwOQ658edkueeNmdevaZvi4ZCQMq3sfXFhjtbe7KH56R7G93/9PlPOovZbVupcAUeUsTFnzSeMAEIAwwHpxCwhT3mZtmHjYur5kwuFfbUz9319y9zF3x3SvdX925yIe4fSNgXP9UWf79Nfd2lOukbgxEWxYGEwNjMYvf4j3ukmSfw51ihdl4hycwgIi9RWsL7dmdWBO8hTQWMJ19f+dL2gFhKAymmUZcfp+76o6/cUufHD6sts1BizbsdpPP5LuYM8p5gxauf9zDAlgFCKAWr/8nf17eoTDFrGVSAEMLcNj1lQbuT/a7Y++XynnIi2Epq3FgdNoAfuwtCmG02+QQplQPmJFA5B0aCEae6jXN60x37b33+10UO6mKljwx7P50wazsfMj3/rKmurMvneGWbn49QCkDycLZM3v9ecAzAWhX3gEMQomAHOeW/Pik3C+6lj5LPzEkoceCATAG1+Sy3qI1TCGMtjUJmhTClGoBUwGicMXMwjvo/Pu8MPJZXud4fcDN/cke7xV4htGj/5udC3nwFvJXAF33+MuZlxDGAMJas3L7IX8OgxQDQaX+jmTf+TIuGA4jxmCoj9BkxyRv4RUoHGdSTMC6otQzlL7dLXUfuNXnwnWtq9N5Qg8zXTA+6MX3Fh/2UF51Cx8drmj9sJv30K+ycyEPeQUHMB7Kpv0jgKzyO7JVL7zuz9EuBsGAClmColl7nOsd6E/2n6+vK8azYKhD3gJ4PMKuLUBJrSuU07rSBCilwdnJgUilg1wvaFHPA8Lsx9Af8fqo13Q3++4tbsG64RECzglTPu7PCwzlgDLNTZp2jg9dr40AErbMA/48RsNLtI5YMEEdL30+2X9U2gd8kgUjb6Ee6iUCsHbEUOy6wuTQuiIo8pYGJZ4myX0KxCsAsTNJa0gxEOc+5i5bc6tb8IiHYeXBXHXHj/x5oMhT8JKpbt7aO7LrEwuEC8v2nev8eSaEBYOYsSGUXfuj07LrkNQYuN83cjYLCgbFsAphigJ206J1BVDxYt8kKDyxnh6IB+J3MaFxOkGHNYvoLAt6DCTACDrXXbh6hZv/8HAmC4Uwds19j7npV17i853lps441wO5Jwmkcy/XL70+H1AQ/UD6HECV+rcnx4B4ymU0FCQoeBpQqC+1rggKoQ0odrFvApTwGNHogQQgcm06IS+hs+yyWJiZ5TEQDBD09nfPcHMeeLUCpRy+WPAXPxZ2Y9lWmYXd77S4eOSq3gLp2n/IzfoWnkT7GITFFmG88H7Vi2uSY0A9Axt9Hms4K47ZdQUo1FkEhX40GUr2+47EYBY/SadoVKFLnaWD7LQwFF5CGKqELAsFzVg0Lx/IvxYD6d7vF/xnuHAUBIzCxKAfQXN/ckWy/5kGD7k5D2PYOMzY11qg8Jq3LW4GlJxdV8/AGn9Wna0FSiVsjdTH3NV3PVI3kOzO8d4+Xx4YhE3aJtZjHDTFfeF7n82+uEr1H63audTnk/Ewvgx4lEPhWazUgFDlZqNd5BW+gKLwlecpfJ7u3vORT7ovP/BCVSDcKbZALvsHygMEGNoRodPc5bfOKgTStfdRnw8js1awLgqMoCAMKihFawqvExm+Xjk99woYVe5xEc/plN15sZVlBxUv8hLHABZ2Wpd/50a3ZNNrrm1LuDjMA7J613d9fmasgNCmDHS6u+zbnysEwncp778Qo2JAJhRegOEVxmRIXot2X7SH7JoyAQs9qWgHhsKVvGYRHY5DWOwto4HoWuT85Ze4eY/c7j3lRbfi+dcPA1m9e49rf+F2N2ftxT6fFnRmLMaoA0j/L92ftdE+ZekvhmZSxWEM8V5Q7A5TY4yhcI6+NXlLrJS34EurdvDIqfUWOmu9RWuL1UggAaRCAQOc5C69DS9j5iFmNfCZ4bQj41DmdPep9gsyo6f6h4D1l2v+opyfPhJuU94iMLwHFMBoX+OjfzEU+kKfBXkCoITfIxaDuWH79T6nXfDjtQUIGBlVA4IBAIAxGCTiPYOmDcGnndqA4EWhTxiS8CNvSa0tGBTFmxldHMs7eU3VZcMhQJoEJe+axWr5T5f73BgV49Lp+CJSqgUIIDCIZKFghGCcCzs+WaOHAASx5gHTtqfZDRQB4b0NXan1xHod/bJeB1x5SYOhZL9lL7jVEmvZsyt8KestGB4AgAEGrykgzH6FEwxB2MAoiIFyDFgYh/qnuE93nV8VyBXf4acYGBAYgiJj0iZQAC5jAgPJSzinkEk/GZegCK6tx65PDQ5d/OinWsjKU9tTK30NDNreAwME4n0RENyfgclAvPJZO6DgKRd/ZUYhENQz8Lr73Df4bWQelHhdYQLQnm3TToTgnRUoeM0ErSfhx575W+FatORJFn86ri+2gMEaUw2IDBOHERlospv5tY9XBSLx4F0xFIUdTQaJz8x8PCDlJXEddj3RZqFBoSsLV4nBjUWLNnb6GgGAtwCDVz4zqNSAMD4QgMHAtOhynJl8QnbRWDr4H8n28sTFZACS5ym0zyynDQtEa0nKS2oNXQ2AMq5fbCW0cH23rxVvAQivGMXuWOT2dkCaaUjecryb/c8fzH1mq0grn7/Hl7dQrEHlpfQBGBYI5/K8JG8HR38bHbqqfMs4Fs25v83XDBCMollqDaJF1g4ICcyb3VW3nDImIIgFvwIFo9q1gFmOUQEBGAuE89px5XkJ+SijMTTYS0jZn3Aa53oSiwX32vv4PYpmabw4Wi+xUAKYBfe8y/UcPJisu1b98dxP+LrUvkIXs1xQmByI9wKSCluaVNZLGEPKSxoEhZT9Xa3EwMYjwHzp/nm+9mpQNKDwunrLpNzv1uvRvB8v8fUp7NA+s5z1TFDoi/UQjJ4XtqyXxV4ClAYDUWoWmC8/MNfXzmDtoIBiBxW8JAPSoB/Bhk2HDCovAQB9AAavQIqBpMJWaoPSRC+xqVlg5q3lwbe8nVfwFv6MRyN/lXzdE6t9vQKC4WlbUBCQBITwlAJiw1aRl48BSPaHZbIfCKHiv3vSXDCEEAwycrFfvn5yQ4GgBY9c4+umPQwqIBLHOAc0AQEEaxCvClsASYWtce64UkbmMaKi1Cww8x+61tc+cpCzbzu5IWtIrPClGDCqAZF3AERQgMR58lGGSdSgsJVrXD8rq6VmgQkzOISDmaUp495lpdQz8N++foUpSUAIZxgcTxAMe00DJGDZcKvd1jjDVpFR+SM1taRmgjlv7lRX6h9I5hmvuvpu972Pd1gCwsItIIDgegpx5wEo8hLr0amNSZ1QqhkzPLZZW2oGmGZr0brzfc91DYJhLRCMjvHj20H27oO8pEFhKyzq6c4i7gTzfUnt6Rh/Zc0fN0vXd7SpdPBx32fCDTMcL8G4rA0CIu/QTVPdxeYY3kPoIr/1knGGraK/QFc/EFLoxFjAXLfpTtd14FfJc80QdybmPMg3n0DBSwhbWtQtEO5e87UCefX1gqAAj9ClLXADFve8P1ZQDUjqj6hVOkBnjnXdB76erDulzr5XfZmPuj+ZO6tmMJ177sgMmzpXi9p3XO3bJNwQdpjpGFdACE2EKQAAI/4SjnPksVDyQledKfXbkiIg2V+8liEGf+3f6w9oCoig4L5vyh4ziutP6eISBuIplunujE9c4FZs3ZjMh7r7f+5m38136ie5ti1fHBOYzr6/9uW5jiDkWCCsERZI0VfV5CN8NRgKT86P+AbRQ8oDklzE+SrYX11XYAQvCVCIrce7jpe+Nbqc0Yptj/l8PMEy8vmvK25b5pY997Dr2HPQg/hPt3rXM27Jpm+6Uz+MsXSxVj+YyoOChButI9SVB0QPdCA+4zmENMKb1pSi8DXGBJyiPwVYtKvq2HOezxEDoWNsC8NsbN/598mybHk/cOlFPg9QBERPSCJA6QkXjISxFDrqBzM2IPGjT5wDCjsyymmhbzCUolRtm9u+A5e2MBBeQgcrIWLljltGlZ3/0Nf8OQZqPWX046uNAFP5vYwFwna2CEgIqUH0kWOMl3xAYf2hDjYJ2n01GUrVa5iBtT6XYAAC70AAoYOCghFOctc/VfLrzE4f03e5Rev/1h/Tc18ygDwkDwx56wdTAVLpS3UPsf2xfdC6wg4MKNRjoWCHJkGpDmSLu2wNHbEQBEJi8SOP3XKyY+H2hLabKUNYKEVgqGMkmMUbP+/BVH6Z1b3vH/1xvINdVgoIdRQBSbUvKIxjgqDUAmTmzQxSMDA+A0+JzsogChkskOzziwwydjAYCThX3kXI0y0UDMdOqVYgeW1bT5kgKPUBkSfw+cQsfPBTgu7969zCDfyZJ85J9jaGNYwNHRixyDAxGO2EMBCQqZOtLR5JO0wCxHtdGNYLRG1bKJoMqTWlwVDqByIPmJT8qdrSJ3kklM7KYwQmnrH1gOG4XXQtGOrCUIRI6sdgiPe6dWKBpNY0217crt1saPdF/YyJMWKXBi70VYEM7i6vIRYInZmc3Fmh7v1P+POCYsEolORdsMVgZCy95zjnZSRd0AkMYYV6JWBwzN46AQhQqSNv9ydxXFtiyjXx4lEp/CuL0UY9rIH+7M9k2GsPLZort9+aLuPVtf/Zcl6AaN1JgdEMrgZGQCwUeQvlBAbjUx8hDfGemS0gQKQNeQkGV/0pIGpP6wn9pF76jl0YD3bBPuxGBWQcUAr/PuTggewr2DAD5CXBqEVA0MrtfPeNRwmKwFTCXjEYazTBQJq1nCefhUJ5jA8EK45znnzkT9UfQxEQtUcZoAJdoSteTxoEZcStFisPhKdGQkM0SMMY9R1u6aa56TJlBS8hvAFQ3iLxWWAArkW4CIyMx2sKCMayUGIJijyFcgpfMRjJAom9pJY7xONIyT9FyMMJ2X0tGhgNpdTfN7pMWV37nnPTLiLeApROAwYIwJD4zHGByfMYGQ8Ikg1ZGFkgYu+wisHEdVswkiaB2qNs7CWMw4YuoIzTS0jchLR3jDPPGXGjMQEl5zFRgIQfc2pLSsepC+NbQJLAkE9gKA8YDGlntjyDz4KBwcmr9SMW5yQMiihD2TyvkeQhnCcv5Zg0Wkvod94CP04oStyUrPwHH1VsoVTWlI6+e5NApl5ApzEunZaAEwOy3sOrBaPtMka1BkQKUYKhnRaeSUjhVeJ4LPpHGUGycIAuz0GaBAJCOYUtxkHf7VrSIC/JTxYKjTETKruvD116crZuCEhH34NlD6HDEmuFFccEBwiCIgHKgsGwMiBGQRiSzxiX88xaQkncFsdSol7KUJY6LHhCmjyHVz4zCSwQ6qaP9F1hq0lekk4WSuwtwYif/fpZ7oLFGApj4xWCYQ0g8Zlz5GWmCYrdAACGc9RFHRhCMxzxXjCoi3zyQCuOpaR+UlbgqVfggSNvJHwythgIfVTYkpdMCBCSGom9BZetgKkYQVAwJkZTOLGG5Bz5KENZQaG+GAwGVH0YULIwrMdZuCmRD9n6qYt+0T+Mb9ch3tN3TYA8INZLmp5iKHQgBsMgtR5gKAERDDvDgYRRMbQGiLEsFAtG9WI8KwGlbfITRuhPNZEPxRNKnmMnEkr1l7LUlQIyIVBIMRigxGEM42nWMQgGBAjNPF75zHENkvzxumKhIDuzJeWnbQxMP5gk9KkWkZcyGNbC0aSib4wDxf0kf56HTBgQUgyFztApQaGzmm1aAywQQYk9RTOeAcvYMjgSICuBwKAWBhOFfslQko7FshMrhkN/6Jf6Rp9oWxPgiAMh5UFhMHSWgchLcH+Mb4EgeQnnAQcUIFKOGWqNIEAxhGog6F8tssAsHIU1TQBJ7avdIw5EyUJhIHSQzjK7MCYGtmErBmK9RGFBYKzkPYChboyUB0PGlbFloFqkMjEc2pD38JrXrm3viCQ7EEGhsxiMGc1Mj71Esh4SA+E9wnOQzgkMdQsKhqkHRiql8mlMSHAESCBsu3GbRyzFA6CzQMG1Fbq0lgAFEPIOG7JiIBwDFOcljnHeQqEt2swzzFiMY8uqPo0vpUa02dBkO49hMBCzFyisAYQdQQGCYNhwpdCEeM8xASGvzQ8UvM9C0WyNjTPepHok1R/L5jkqku1wDMUu8nbWC4bCkRZzbTuVXyBjKORlTWHdUujSjG2GcVRnNR01SR0SFAxk1xQMiKEVliwMzmlHhfjMcc5bKLwqfHGeMkAHvkJXs4C8IZOFwmwFCrOXWSxvkRdYr+A40JjxkvLGIYxXgHCc83HoaqaXvGGThaIQhsEEBiPKGwSC4xiWPIj3AmPDmDxLQDhPXusltNsCEiUZxHqLwGA8Gd1C4DjnJT5bMLF32atn8k7EWvKGTzEYeQzGs8bnM+KcFccsmJR3yUNaQGpMFooFg/FicTwWxwXQepbEMc4BkLwtIDUmGSiGk1J8XmDkNda7kLyLfCpv22ulgmQNhWT8WKnzFk4seVQLyDiSNVotsmDypDy2XCuNI+UZ0BpYkvFj2TytNEHJGj1PrXQEUwtEK7VSK7XSb0ty7v8BdJM3uAbn/7sAAAAASUVORK5CYII=;" vertex="1" parent="7K1gx86GGzJUnyS49Ook-26">
          <mxGeometry x="1.4599999999999795" width="59.41" height="60" as="geometry" />
        </mxCell>
        <mxCell id="7K1gx86GGzJUnyS49Ook-28" value="Online Endpoint" style="text;html=1;strokeColor=none;fillColor=none;align=center;verticalAlign=middle;whiteSpace=wrap;rounded=0;" vertex="1" parent="7K1gx86GGzJUnyS49Ook-26">
          <mxGeometry x="-7" y="44" width="60" height="30" as="geometry" />
        </mxCell>
        <mxCell id="7K1gx86GGzJUnyS49Ook-31" value="" style="group" vertex="1" connectable="0" parent="1">
          <mxGeometry x="-410" y="-1280" width="197" height="78" as="geometry" />
        </mxCell>
        <mxCell id="5" value="Client 1&#xa;Publisher" style="whiteSpace=wrap;strokeWidth=2;" parent="7K1gx86GGzJUnyS49Ook-31" vertex="1">
          <mxGeometry y="8" width="77" height="34" as="geometry" />
        </mxCell>
        <mxCell id="7K1gx86GGzJUnyS49Ook-22" value="" style="group" vertex="1" connectable="0" parent="7K1gx86GGzJUnyS49Ook-31">
          <mxGeometry x="77" width="120" height="78" as="geometry" />
        </mxCell>
        <mxCell id="7K1gx86GGzJUnyS49Ook-20" value="" style="shape=image;verticalLabelPosition=bottom;labelBackgroundColor=default;verticalAlign=top;aspect=fixed;imageAspect=0;image=data:image/svg+xml,PHN2ZyB4bWxucz0iaHR0cDovL3d3dy53My5vcmcvMjAwMC9zdmciIHZpZXdCb3g9IjAgMCAxOCAxOCIgaGVpZ2h0PSIxOCIgd2lkdGg9IjE4Ij48ZGVmcz48bGluZWFyR3JhZGllbnQgZ3JhZGllbnRVbml0cz0idXNlclNwYWNlT25Vc2UiIHkyPSI1Ljk3MyIgeDI9IjkiIHkxPSIxNS40MjciIHgxPSI5IiBpZD0iYTAwNWQ5ZTktN2UyOS00ZWY0LWI5OTUtYTc5ZGNlMmU5YmY4Ij48c3RvcCBzdG9wLWNvbG9yPSIjMzJiZWRkIiBvZmZzZXQ9IjAiLz48c3RvcCBzdG9wLWNvbG9yPSIjMzJjYWVhIiBvZmZzZXQ9IjAuMTc1Ii8+PHN0b3Agc3RvcC1jb2xvcj0iIzMyZDJmMiIgb2Zmc2V0PSIwLjQxIi8+PHN0b3Agc3RvcC1jb2xvcj0iIzMyZDRmNSIgb2Zmc2V0PSIwLjc3NSIvPjwvbGluZWFyR3JhZGllbnQ+PC9kZWZzPjx0aXRsZT5Nc1BvcnRhbEZ4LmJhc2UuaW1hZ2VzLTYwPC90aXRsZT48ZyBpZD0iZjEyYjQ4Y2UtMTE0Yy00NDI1LTk2YmUtMDExMmIzZjdkOWMzIj48Zz48cGF0aCBmaWxsPSJ1cmwoI2EwMDVkOWU5LTdlMjktNGVmNC1iOTk1LWE3OWRjZTJlOWJmOCkiIGQ9Ik0xLDUuOTczSDE3YTAsMCwwLDAsMSwwLDB2OC45MmEuNTM1LjUzNSwwLDAsMS0uNTM1LjUzNUgxLjUzNUEuNTM1LjUzNSwwLDAsMSwxLDE0Ljg5M1Y1Ljk3M0EwLDAsMCwwLDEsMSw1Ljk3M1oiLz48cGF0aCBmaWxsPSIjMTk4YWIzIiBkPSJNMS41MzgsMi41NjNIMTYuNDYyQS41MzUuNTM1LDAsMCwxLDE3LDMuMVY1Ljk3M2EwLDAsMCwwLDEsMCwwSDFhMCwwLDAsMCwxLDAsMFYzLjFBLjUzNS41MzUsMCwwLDEsMS41MzgsMi41NjNaIi8+PHBhdGggZmlsbD0iIzljZWJmZiIgZD0iTTEsNS45NzNINS4xOTRhMCwwLDAsMCwxLDAsMHY5LjQ1NWEwLDAsMCwwLDEsMCwwSDEuNTM2QS41MzIuNTMyLDAsMCwxLDEsMTQuODk1VjUuOTczQTAsMCwwLDAsMSwxLDUuOTczWiIvPjxwYXRoIGZpbGw9IiMzMmJlZGQiIGQ9Ik01LjE5NCwxMy4zNTZIMTdhMCwwLDAsMCwxLDAsMFYxNC45YS41MzIuNTMyLDAsMCwxLS41MzIuNTMySDUuMTk0YTAsMCwwLDAsMSwwLDBWMTMuMzU2YTAsMCwwLDAsMSwwLDBaIi8+PC9nPjwvZz48L3N2Zz4=;" vertex="1" parent="7K1gx86GGzJUnyS49Ook-22">
          <mxGeometry width="58" height="58" as="geometry" />
        </mxCell>
        <mxCell id="7K1gx86GGzJUnyS49Ook-21" value="&lt;span style=&quot;color: rgb(0, 0, 0); font-family: Helvetica; font-size: 12px; font-style: normal; font-variant-ligatures: normal; font-variant-caps: normal; font-weight: 400; letter-spacing: normal; orphans: 2; text-align: center; text-indent: 0px; text-transform: none; widows: 2; word-spacing: 0px; -webkit-text-stroke-width: 0px; white-space: normal; background-color: rgb(251, 251, 251); text-decoration-thickness: initial; text-decoration-style: initial; text-decoration-color: initial; display: inline !important; float: none;&quot;&gt;Rest Client&lt;/span&gt;" style="text;whiteSpace=wrap;html=1;" vertex="1" parent="7K1gx86GGzJUnyS49Ook-22">
          <mxGeometry y="38" width="120" height="40" as="geometry" />
        </mxCell>
      </root>
    </mxGraphModel>
  </diagram>
</mxfile>
